<svg width="65" height="65" viewBox="0 0 65 65" fill="none" xmlns="http://www.w3.org/2000/svg">
<path d="M34.3056 30.4688V2.10742C34.3056 0.964844 35.0955 0 36.1111 0C50.0703 0 61.3889 12.7334 61.3889 28.4375C61.3889 29.5801 60.5313 30.4688 59.5156 30.4688H34.3056ZM3.61111 34.5312C3.61111 19.1318 13.7786 6.38574 26.9705 4.35449C28.0087 4.18945 28.8889 5.12891 28.8889 6.30957V36.5625L46.5495 56.4307C47.3056 57.2812 47.2491 58.6777 46.3802 59.3633C41.9566 62.918 36.5399 65 30.6944 65C15.7422 65 3.61111 51.3652 3.61111 34.5312ZM63.0139 36.5625C64.0634 36.5625 64.8872 37.5527 64.7517 38.7207C63.8828 45.8174 60.8472 52.127 56.4123 56.7861C55.7352 57.4971 54.6745 57.4463 54.02 56.6973L36.1111 36.5625H63.0139Z" fill="white"/>
</svg>
