<svg width="54" height="57" viewBox="0 0 54 57" fill="none" xmlns="http://www.w3.org/2000/svg">
<g clip-path="url(#clip0_133_119)">
<path d="M43.875 23.1562C43.875 28.2662 42.3035 32.9865 39.6562 36.8162L53.0086 50.9215C54.327 52.3131 54.327 54.573 53.0086 55.9646C51.6902 57.3563 49.5492 57.3563 48.2309 55.9646L34.8785 41.8594C31.2504 44.6648 26.7785 46.3125 21.9375 46.3125C9.81914 46.3125 0 35.9479 0 23.1562C0 10.3646 9.81914 0 21.9375 0C34.0559 0 43.875 10.3646 43.875 23.1562ZM10.9688 24.0469V31.1719C10.9688 32.6525 12.0973 33.8438 13.5 33.8438C14.9027 33.8438 16.0312 32.6525 16.0312 31.1719V24.0469C16.0312 22.5662 14.9027 21.375 13.5 21.375C12.0973 21.375 10.9688 22.5662 10.9688 24.0469ZM19.4062 13.3594V31.1719C19.4062 32.6525 20.5348 33.8438 21.9375 33.8438C23.3402 33.8438 24.4688 32.6525 24.4688 31.1719V13.3594C24.4688 11.8787 23.3402 10.6875 21.9375 10.6875C20.5348 10.6875 19.4062 11.8787 19.4062 13.3594ZM27.8438 20.4844V31.1719C27.8438 32.6525 28.9723 33.8438 30.375 33.8438C31.7777 33.8438 32.9062 32.6525 32.9062 31.1719V20.4844C32.9062 19.0037 31.7777 17.8125 30.375 17.8125C28.9723 17.8125 27.8438 19.0037 27.8438 20.4844Z" fill="white"/>
</g>
<defs>
<clipPath id="clip0_133_119">
<rect width="54" height="57" fill="white"/>
</clipPath>
</defs>
</svg>
