<svg width="54" height="50" viewBox="0 0 54 50" fill="none" xmlns="http://www.w3.org/2000/svg">
<path d="M26.807 4.65411L34.0343 7.50415L26.5489 10.4981L19.0636 7.50415L26.2908 4.65411C26.4567 4.58693 26.6411 4.58693 26.8163 4.65411H26.807ZM12.537 8.86679V19.6336C12.4172 19.672 12.2973 19.7104 12.1775 19.7584L3.32783 23.2513C1.32745 24.0382 0 26.0438 0 28.2701V39.7086C0 41.839 1.20761 43.7678 3.08816 44.6314L11.9378 48.681C13.2652 49.2855 14.7678 49.2855 16.0953 48.681L26.5489 43.8925L37.0118 48.681C38.3392 49.2855 39.8418 49.2855 41.1693 48.681L50.0189 44.6314C51.8902 43.7774 53.1071 41.839 53.1071 39.7086V28.2701C53.1071 26.0342 51.7796 24.0382 49.7792 23.2417L40.9296 19.7488C40.8098 19.7008 40.6899 19.6624 40.5701 19.624V8.86679C40.5701 6.6309 39.2426 4.63491 37.2422 3.83844L28.3926 0.345459C27.2127 -0.115153 25.9129 -0.115153 24.7329 0.345459L15.8833 3.83844C13.8644 4.63491 12.537 6.6405 12.537 8.86679ZM36.136 20.1998L28.5401 23.1938V14.634L36.136 11.6017V20.1998ZM14.27 24.067L21.4973 26.917L14.0119 29.9014L6.52661 26.917L13.7538 24.067C13.9198 23.9998 14.1041 23.9998 14.2793 24.067H14.27ZM16.0031 43.6814V34.0373L23.599 31.005V40.2076L16.0031 43.6814ZM38.8278 24.067C38.9937 23.9998 39.1781 23.9998 39.3533 24.067L46.5805 26.917L39.0859 29.9014L31.6006 26.917L38.8278 24.067ZM48.2306 40.4092L41.0771 43.6814V34.0373L48.673 31.005V39.7086C48.673 40.0157 48.4979 40.2844 48.2306 40.4092Z" fill="white"/>
</svg>
