<svg width="50" height="56" viewBox="0 0 50 56" fill="none" xmlns="http://www.w3.org/2000/svg">
<path d="M25.2387 5.21105L32.0431 8.40215L24.9957 11.7544L17.9483 8.40215L24.7527 5.21105C24.9089 5.13584 25.0825 5.13584 25.2474 5.21105H25.2387ZM11.8035 9.92786V21.9831C11.6907 22.0261 11.5779 22.0691 11.465 22.1228L3.13314 26.0338C1.24978 26.9148 0 29.1604 0 31.6531V44.4605C0 46.8457 1.13696 49.0054 2.90748 49.9724L11.2394 54.5065C12.4892 55.1834 13.9038 55.1834 15.1536 54.5065L24.9957 49.145L34.8464 54.5065C36.0962 55.1834 37.5109 55.1834 38.7606 54.5065L47.0925 49.9724C48.8544 49.0161 50 46.8457 50 44.4605V31.6531C50 29.1496 48.7502 26.9148 46.8669 26.023L38.535 22.112C38.4222 22.0583 38.3093 22.0153 38.1965 21.9724V9.92786C38.1965 7.4244 36.9467 5.18956 35.0634 4.29777L26.7315 0.3868C25.6206 -0.128933 24.3968 -0.128933 23.2859 0.3868L14.954 4.29777C13.0533 5.18956 11.8035 7.43515 11.8035 9.92786ZM34.0219 22.617L26.8703 25.9693V16.3853L34.0219 12.99V22.617ZM13.4352 26.947L20.2395 30.1381L13.1922 33.4797L6.14477 30.1381L12.9491 26.947C13.1054 26.8718 13.2789 26.8718 13.4438 26.947H13.4352ZM15.0668 48.9087V38.1105L22.2184 34.7153V45.0192L15.0668 48.9087ZM36.5562 26.947C36.7124 26.8718 36.886 26.8718 37.0509 26.947L43.8552 30.1381L36.7992 33.4797L29.7518 30.1381L36.5562 26.947ZM45.4088 45.2448L38.6738 48.9087V38.1105L45.8254 34.7153V44.4605C45.8254 44.8043 45.6605 45.1051 45.4088 45.2448Z" fill="white"/>
</svg>
