<svg width="66" height="70" viewBox="0 0 66 70" fill="none" xmlns="http://www.w3.org/2000/svg">
<path d="M32.816 6.61585L41.6632 10.6672L32.5 14.9232L23.3368 10.6672L32.184 6.61585C32.3872 6.52037 32.6128 6.52037 32.8273 6.61585H32.816ZM15.3472 12.6042V27.9094C15.2005 27.9639 15.0538 28.0185 14.9071 28.0867L4.07378 33.052C1.625 34.1705 0 37.0215 0 40.1862V56.4462C0 59.4745 1.4783 62.2163 3.78038 63.444L14.6137 69.2005C16.2387 70.0598 18.0781 70.0598 19.7031 69.2005L32.5 62.3936L45.3082 69.2005C46.9332 70.0598 48.7726 70.0598 50.3976 69.2005L61.2309 63.444C63.5217 62.2299 65.0113 59.4745 65.0113 56.4462V40.1862C65.0113 37.0079 63.3863 34.1705 60.9375 33.0383L50.1042 28.073C49.9575 28.0048 49.8108 27.9503 49.6641 27.8957V12.6042C49.6641 9.42589 48.0391 6.58857 45.5903 5.45637L34.7569 0.491074C33.3125 -0.163691 31.7214 -0.163691 30.2769 0.491074L19.4436 5.45637C16.9722 6.58857 15.3472 9.43953 15.3472 12.6042ZM44.2361 28.7142L34.9375 32.9701V20.8024L44.2361 16.4919V28.7142ZM17.4688 34.2115L26.316 38.2628L17.1528 42.5052L7.98958 38.2628L16.8368 34.2115C17.0399 34.116 17.2656 34.116 17.48 34.2115H17.4688ZM19.5903 62.0935V48.3844L28.8889 44.0739V57.1555L19.5903 62.0935ZM47.5313 34.2115C47.7344 34.116 47.9601 34.116 48.1745 34.2115L57.0217 38.2628L47.8472 42.5052L38.684 38.2628L47.5313 34.2115ZM59.0417 57.442L50.2847 62.0935V48.3844L59.5833 44.0739V56.4462C59.5833 56.8827 59.3689 57.2646 59.0417 57.442Z" fill="white"/>
</svg>
