<svg width="54" height="57" viewBox="0 0 54 57" fill="none" xmlns="http://www.w3.org/2000/svg">
<path d="M28.5 26.7188V1.84805C28.5 0.846094 29.1562 0 30 0C41.5969 0 51 11.1662 51 24.9375C51 25.9395 50.2875 26.7188 49.4438 26.7188H28.5ZM3 30.2812C3 16.7771 11.4469 5.5998 22.4062 3.81855C23.2687 3.67383 24 4.49766 24 5.53301V32.0625L38.6719 49.4854C39.3 50.2312 39.2531 51.4559 38.5312 52.057C34.8562 55.1742 30.3562 57 25.5 57C13.0781 57 3 45.0434 3 30.2812ZM52.35 32.0625C53.2219 32.0625 53.9062 32.9309 53.7937 33.9551C53.0719 40.1783 50.55 45.7113 46.8656 49.7971C46.3031 50.4205 45.4219 50.376 44.8781 49.7191L30 32.0625H52.35Z" fill="white"/>
</svg>
