<svg width="65" height="65" viewBox="0 0 65 65" fill="none" xmlns="http://www.w3.org/2000/svg">
<g clip-path="url(#clip0_41_23)">
<path d="M52.8125 26.4062C52.8125 32.2334 50.9209 37.6162 47.7344 41.9834L63.8066 58.0684C65.3936 59.6553 65.3936 62.2324 63.8066 63.8193C62.2197 65.4062 59.6426 65.4062 58.0557 63.8193L41.9834 47.7344C37.6162 50.9336 32.2334 52.8125 26.4062 52.8125C11.8193 52.8125 0 40.9932 0 26.4062C0 11.8193 11.8193 0 26.4062 0C40.9932 0 52.8125 11.8193 52.8125 26.4062ZM13.2031 27.4219V35.5469C13.2031 37.2354 14.5615 38.5938 16.25 38.5938C17.9385 38.5938 19.2969 37.2354 19.2969 35.5469V27.4219C19.2969 25.7334 17.9385 24.375 16.25 24.375C14.5615 24.375 13.2031 25.7334 13.2031 27.4219ZM23.3594 15.2344V35.5469C23.3594 37.2354 24.7178 38.5938 26.4062 38.5938C28.0947 38.5938 29.4531 37.2354 29.4531 35.5469V15.2344C29.4531 13.5459 28.0947 12.1875 26.4062 12.1875C24.7178 12.1875 23.3594 13.5459 23.3594 15.2344ZM33.5156 23.3594V35.5469C33.5156 37.2354 34.874 38.5938 36.5625 38.5938C38.251 38.5938 39.6094 37.2354 39.6094 35.5469V23.3594C39.6094 21.6709 38.251 20.3125 36.5625 20.3125C34.874 20.3125 33.5156 21.6709 33.5156 23.3594Z" fill="white"/>
</g>
<defs>
<clipPath id="clip0_41_23">
<rect width="65" height="65" fill="white"/>
</clipPath>
</defs>
</svg>
